<svg width="1001" height="1001" viewBox="0 0 1001 1001" fill="none" xmlns="http://www.w3.org/2000/svg">
<path fill-rule="evenodd" clip-rule="evenodd" d="M554.632 432.26C573.723 465.235 578.929 474.781 595.359 488.314C602.137 492.897 607.361 494.859 615.748 493.439C642.691 488.147 672.558 481.968 699 479C700.22 545.174 699.837 611.451 701.644 677.614C702.847 724.045 702.846 724.045 691.896 736.627C659.445 770.538 596.147 831.102 591 837C585.855 842.895 253.545 762.364 253.545 762.364C253.518 762.073 239.408 610.907 238.52 581.132C237.642 548.043 259.372 520.21 278.562 507.414C395.763 476.01 436.96 463.791 554.632 432.26ZM606 495C511.24 511.419 400.296 530.629 311 547V713C408.967 721.906 507.659 732.066 606 736V495Z" fill="url(#paint0_linear_36_71)"/>
<path d="M747.96 758.41L986.077 703.31L786.59 791.456L645.091 813.578C645.253 813.418 702.32 757.178 712.432 747.066C726.956 732.542 725.362 703.511 725.358 703.438L856.852 640.06L747.96 758.41Z" fill="url(#paint1_linear_36_71)"/>
<path d="M225.123 686.21L231.616 758.355L174.11 755.496L15.5859 685.451L204.809 729.236L118.276 635.188L225.123 686.21Z" fill="url(#paint2_linear_36_71)"/>
<path d="M445.768 160.806C490.043 161.209 485.514 194.794 485.514 194.794C485.513 194.934 485.304 306.188 485.304 428.75C448.725 438.551 451.41 438.565 404.785 451.058C404.785 326.31 404.207 196.782 404.206 196.629C404.206 196.629 401.492 160.404 445.768 160.806Z" fill="url(#paint3_linear_36_71)"/>
<defs>
<linearGradient id="paint0_linear_36_71" x1="873.974" y1="244.89" x2="431.4" y2="751.271" gradientUnits="userSpaceOnUse">
<stop offset="0.231259" stop-color="#0D7EE1"/>
<stop offset="1" stop-color="#006BCD"/>
</linearGradient>
<linearGradient id="paint1_linear_36_71" x1="873.974" y1="244.89" x2="431.4" y2="751.271" gradientUnits="userSpaceOnUse">
<stop offset="0.231259" stop-color="#0D7EE1"/>
<stop offset="1" stop-color="#006BCD"/>
</linearGradient>
<linearGradient id="paint2_linear_36_71" x1="873.974" y1="244.89" x2="431.4" y2="751.271" gradientUnits="userSpaceOnUse">
<stop offset="0.231259" stop-color="#0D7EE1"/>
<stop offset="1" stop-color="#006BCD"/>
</linearGradient>
<linearGradient id="paint3_linear_36_71" x1="873.974" y1="244.89" x2="431.4" y2="751.271" gradientUnits="userSpaceOnUse">
<stop offset="0.231259" stop-color="#0D7EE1"/>
<stop offset="1" stop-color="#006BCD"/>
</linearGradient>
</defs>
</svg>
