<svg width="1001" height="724" viewBox="0 0 1001 724" fill="none" xmlns="http://www.w3.org/2000/svg">
<path fill-rule="evenodd" clip-rule="evenodd" d="M584.318 290.474C604.704 325.687 610.264 335.881 627.809 350.332C635.047 355.226 640.626 357.321 649.582 355.805C678.354 350.154 710.247 343.556 738.484 340.386C739.787 411.051 739.378 481.827 741.307 552.48C742.592 602.062 742.592 602.063 730.898 615.498C696.245 651.711 628.65 716.386 623.154 722.683C617.66 728.979 262.796 642.982 262.796 642.982C262.767 642.672 247.7 481.245 246.751 449.45C245.814 414.116 269.019 384.393 289.512 370.728C414.666 337.193 458.659 324.144 584.318 290.474ZM639.172 357.472C537.98 375.005 419.507 395.519 324.151 413.001V590.267C428.767 599.778 534.156 610.628 639.172 614.828V357.472Z" fill="url(#paint0_linear_36_70)"/>
<path d="M798.659 614.436L1000.59 659.159L696.112 683.951C696.286 683.78 742.029 637.444 752.827 626.646C768.337 611.136 766.636 580.135 766.631 580.057L919.273 557.517L798.659 614.436Z" fill="#5BABF0"/>
<path d="M234.627 574.027L242.636 658.789L385.019 693.495L0.585938 682.816L161.656 637.432L43.3007 604.506L192.803 594.717L133.18 557.342L234.627 574.027Z" fill="#5BABF0"/>
<path d="M468.065 0.596633C515.346 1.02643 510.508 36.8907 510.508 36.8907C510.508 37.0401 510.284 155.846 510.284 286.725C471.223 297.192 474.09 297.207 424.301 310.548C424.301 177.333 423.683 39.0142 423.683 38.8512C423.683 38.8512 420.784 0.166898 468.065 0.596633Z" fill="url(#paint1_linear_36_70)"/>
<defs>
<linearGradient id="paint0_linear_36_70" x1="925.333" y1="90.3869" x2="452.722" y2="631.136" gradientUnits="userSpaceOnUse">
<stop offset="0.231259" stop-color="#0D7EE1"/>
<stop offset="1" stop-color="#006BCD"/>
</linearGradient>
<linearGradient id="paint1_linear_36_70" x1="925.333" y1="90.3869" x2="452.722" y2="631.136" gradientUnits="userSpaceOnUse">
<stop offset="0.231259" stop-color="#0D7EE1"/>
<stop offset="1" stop-color="#006BCD"/>
</linearGradient>
</defs>
</svg>
