<svg width="1001" height="1001" viewBox="0 0 1001 1001" fill="none" xmlns="http://www.w3.org/2000/svg">
<path fill-rule="evenodd" clip-rule="evenodd" d="M584.318 429.474C604.704 464.687 610.264 474.881 627.809 489.332C635.047 494.226 640.626 496.321 649.582 494.805C678.354 489.154 710.247 482.556 738.484 479.386C739.787 550.051 739.378 620.827 741.307 691.48C742.592 741.062 742.592 741.063 730.898 754.498C696.245 790.711 628.65 855.386 623.154 861.683C617.66 867.979 262.796 781.982 262.796 781.982C262.767 781.672 247.7 620.245 246.751 588.45C245.814 553.116 269.019 523.393 289.512 509.728C414.666 476.193 458.659 463.144 584.318 429.474ZM639.172 496.472C537.98 514.005 419.507 534.519 324.151 552.001V729.267C428.767 738.778 534.156 749.628 639.172 753.828V496.472Z" fill="url(#paint0_linear_36_71)"/>
<path d="M798.659 753.436L1000.59 798.159L696.112 822.951C696.286 822.78 742.029 776.444 752.827 765.646C768.337 750.136 766.636 719.135 766.631 719.057L919.273 696.517L798.659 753.436Z" fill="#5BABF0"/>
<path d="M234.627 713.027L242.636 797.789L385.019 832.495L0.585938 821.816L161.656 776.432L43.3007 743.506L192.803 733.717L133.18 696.342L234.627 713.027Z" fill="#5BABF0"/>
<path d="M468.065 139.597C515.346 140.026 510.508 175.891 510.508 175.891C510.508 176.04 510.284 294.846 510.284 425.725C471.223 436.192 474.09 436.207 424.301 449.548C424.301 316.333 423.683 178.014 423.683 177.851C423.683 177.851 420.784 139.167 468.065 139.597Z" fill="url(#paint1_linear_36_71)"/>
<defs>
<linearGradient id="paint0_linear_36_71" x1="925.333" y1="229.387" x2="452.722" y2="770.136" gradientUnits="userSpaceOnUse">
<stop offset="0.231259" stop-color="#0D7EE1"/>
<stop offset="1" stop-color="#006BCD"/>
</linearGradient>
<linearGradient id="paint1_linear_36_71" x1="925.333" y1="229.387" x2="452.722" y2="770.136" gradientUnits="userSpaceOnUse">
<stop offset="0.231259" stop-color="#0D7EE1"/>
<stop offset="1" stop-color="#006BCD"/>
</linearGradient>
</defs>
</svg>
